<mxfile host="app.diagrams.net" modified="2024-04-19T13:48:47.652Z" agent="Mozilla/5.0 (Windows NT 10.0; Win64; x64) AppleWebKit/537.36 (KHTML, like Gecko) Chrome/124.0.0.0 Safari/537.36" etag="8RmBcwy1hUDYZaFDlOJC" version="24.2.5" type="device">
  <diagram name="PÃ¡gina-1" id="KIRKD7BKwSxIHV74OCol">
    <mxGraphModel dx="2849" dy="1103" grid="0" gridSize="10" guides="1" tooltips="1" connect="1" arrows="1" fold="1" page="0" pageScale="1" pageWidth="827" pageHeight="1169" math="0" shadow="0">
      <root>
        <mxCell id="0" />
        <mxCell id="1" parent="0" />
        <mxCell id="LchZ3-hdmJFFY5GupzqH-1" value="" style="rounded=0;whiteSpace=wrap;html=1;" vertex="1" parent="1">
          <mxGeometry x="-619" y="227" width="1439" height="1144" as="geometry" />
        </mxCell>
        <mxCell id="LchZ3-hdmJFFY5GupzqH-2" value="&lt;font style=&quot;font-size: 26px;&quot;&gt;Foto&lt;/font&gt;" style="ellipse;whiteSpace=wrap;html=1;aspect=fixed;" vertex="1" parent="1">
          <mxGeometry x="388" y="295" width="249" height="249" as="geometry" />
        </mxCell>
        <mxCell id="LchZ3-hdmJFFY5GupzqH-3" value="&lt;font style=&quot;font-size: 50px;&quot;&gt;Nome&lt;/font&gt;" style="rounded=1;whiteSpace=wrap;html=1;" vertex="1" parent="1">
          <mxGeometry x="-449" y="309.5" width="721" height="220" as="geometry" />
        </mxCell>
        <mxCell id="LchZ3-hdmJFFY5GupzqH-4" value="&lt;font style=&quot;font-size: 27px;&quot;&gt;Sobre mim&lt;/font&gt;" style="rounded=0;whiteSpace=wrap;html=1;" vertex="1" parent="1">
          <mxGeometry x="-550" y="593" width="1254" height="60" as="geometry" />
        </mxCell>
        <mxCell id="LchZ3-hdmJFFY5GupzqH-5" value="&lt;font style=&quot;font-size: 29px;&quot;&gt;Foto 2&lt;/font&gt;" style="rounded=0;whiteSpace=wrap;html=1;" vertex="1" parent="1">
          <mxGeometry x="-472" y="714" width="401" height="204" as="geometry" />
        </mxCell>
        <mxCell id="LchZ3-hdmJFFY5GupzqH-6" value="&lt;font style=&quot;font-size: 26px;&quot;&gt;Algumas Habilidades&lt;/font&gt;" style="rounded=0;whiteSpace=wrap;html=1;" vertex="1" parent="1">
          <mxGeometry x="178" y="716" width="386" height="200" as="geometry" />
        </mxCell>
        <mxCell id="LchZ3-hdmJFFY5GupzqH-8" value="&lt;font style=&quot;font-size: 28px;&quot;&gt;REdes sociais&lt;/font&gt;" style="rounded=0;whiteSpace=wrap;html=1;" vertex="1" parent="1">
          <mxGeometry x="-472" y="993" width="404" height="277" as="geometry" />
        </mxCell>
        <mxCell id="LchZ3-hdmJFFY5GupzqH-9" value="&lt;font style=&quot;font-size: 27px;&quot;&gt;Foto 3&lt;/font&gt;" style="rounded=0;whiteSpace=wrap;html=1;" vertex="1" parent="1">
          <mxGeometry x="178" y="1014" width="383" height="256" as="geometry" />
        </mxCell>
      </root>
    </mxGraphModel>
  </diagram>
</mxfile>
